<?xml version="1.0" standalone="no"?>
<!DOCTYPE svg PUBLIC "-//W3C//DTD SVG 20010904//EN"
 "http://www.w3.org/TR/2001/REC-SVG-20010904/DTD/svg10.dtd">
<svg version="1.0" xmlns="http://www.w3.org/2000/svg"
 width="1000.000000pt" height="402.000000pt" viewBox="0 0 1000.000000 402.000000"
 preserveAspectRatio="xMidYMid meet">

<g transform="translate(0.000000,402.000000) scale(0.100000,-0.100000)"
fill="#000000" stroke="none">
<path d="M0 2010 l0 -2010 5000 0 5000 0 0 2010 0 2010 -5000 0 -5000 0 0
-2010z m1220 825 c74 -476 136 -862 137 -858 4 13 273 1702 273 1713 0 7 135
10 390 10 l390 0 2 -1531 3 -1530 228 1523 c125 838 228 1526 227 1531 0 4
184 7 409 7 l408 0 5 -32 c3 -18 102 -675 219 -1460 118 -784 215 -1426 215
-1425 2 3 14 2321 14 2640 l0 277 344 0 c190 0 379 -5 421 -11 275 -38 511
-192 678 -444 26 -38 47 -63 47 -55 0 8 -14 121 -30 250 -16 129 -30 241 -30
248 0 9 68 12 309 12 l309 0 5 -27 c2 -16 65 -473 138 -1018 74 -544 136 -980
138 -970 2 11 65 468 140 1015 l137 995 857 3 857 2 0 -310 0 -310 -270 0
-270 0 0 -380 0 -380 270 0 270 0 0 -310 0 -310 -270 0 -270 0 0 -385 0 -385
270 0 270 0 0 -305 0 -305 -575 0 -575 0 -2 1509 -3 1508 -239 -1506 c-131
-828 -239 -1507 -240 -1508 -1 -1 -161 -3 -356 -3 l-355 -1 -6 28 c-4 15 -83
482 -176 1037 -164 984 -168 1007 -175 928 -19 -231 -139 -478 -308 -636 l-53
-49 188 -641 c103 -353 190 -647 193 -654 3 -10 -58 -12 -299 -10 l-303 3
-144 550 c-79 303 -146 552 -147 553 -2 2 -33 1 -69 -3 l-66 -7 0 -549 0 -549
-583 0 -582 0 -35 258 -35 257 -236 3 -235 2 -35 -257 -34 -258 -592 -3 -593
-2 -2 780 -3 779 -131 -777 -130 -777 -165 -3 -165 -2 -135 790 -134 790 -3
-790 -2 -790 -305 0 -305 0 0 1690 0 1690 388 0 387 0 135 -865z m7960 -520
l0 -1385 255 0 255 0 0 -305 0 -305 -560 0 -560 0 0 1690 0 1690 305 0 305 0
0 -1385z"/>
<path d="M4750 2550 l0 -543 43 7 c165 27 301 183 343 396 20 100 14 269 -11
364 -48 174 -173 295 -324 313 l-51 6 0 -543z"/>
<path d="M3277 2745 c-8 -43 -157 -1330 -157 -1352 0 -10 34 -13 165 -13 139
0 165 2 165 15 0 12 -155 1313 -163 1370 -2 11 -6 2 -10 -20z"/>
</g>
</svg>
